<svg xmlns="http://www.w3.org/2000/svg" viewBox="0 0 1075.09 640.09"><defs><style>.cls-1{fill:#385ca3;}.cls-2{fill:#f4b619;}.cls-3{fill:#dc2126;}.cls-4{fill:#349d47;}.cls-5{fill:#fff;}</style></defs><g id="Layer_2" data-name="Layer 2"><g id="Layer_1-2" data-name="Layer 1"><path class="cls-1" d="M914.57,640.09a433.48,433.48,0,0,0,28.68-67c-272.88-57.78-551.6-38-830.86,1.09a431,431,0,0,0,28.26,65.92Z"/><path class="cls-2" d="M907.35,220.4a436.65,436.65,0,0,0-28.42-43.21C799.26,69.75,671.67,0,527.64,0,307.31,0,125.1,162.94,94.76,374.87a442.73,442.73,0,0,0-4.33,57.25c0,1.76-.19,3.49-.19,5.27a437.54,437.54,0,0,0,6.18,72.78c175.25-9.54,349.53-30.47,517-74.47,97.1-71.32,216.11-103,319.92-161.12a426.54,426.54,0,0,0-25.94-54.18"/><path class="cls-3" d="M958.06,360.62A442.14,442.14,0,0,0,945.57,309c-3.58-11.7-7.78-23.11-12.27-34.38-103.76,58.07-222.72,89.78-319.79,161-167.45,44.09-341.79,65-517.1,74.56a439.6,439.6,0,0,0,16,64.65c279.25-39.06,558-58.86,830.86-1.1a433.09,433.09,0,0,0,14.81-213.09"/><path class="cls-4" d="M502.61,564.36c207.28,0,398.61,12.17,552.65,32.72-120.19-41.38-315.88-68.36-537-68.36-210,0-397,24.32-518.22,62.18,144.65-16.76,317.17-26.54,502.61-26.54"/><path class="cls-5" d="M1060.52,241.09c15.31-7.24,14.79-17,14.46-20.85-.91-10.77-115.69,18.86-147.65,26.33-.86.2-7.92,4-8.75,4.31C821.12,288.93,729,304.07,725.39,304.66l-.17,0c-54.61,18-144,105.86-169.69,131.84a56.5,56.5,0,0,1-17.66,12.3c-54.19,23.47-94.23,5.55-94.23,5.55-5.67-2.76-11.24-5.36-16.79-7.91-203-93.69-309-50.44-321.8-44.53-5,2.28-12.73,3.07-13.48,6.41-.49,2.29-1.94,5.62-2.4,7.84a2,2,0,0,0,2,2.38,112.88,112.88,0,0,0,17.52-1.44C217.49,399,330.15,458.89,389.86,498a528.92,528.92,0,0,1,43.21,31.13,0,0,0,0,1,0,0c8.34,9.05,4.77,24,11.9,31.12,24.13,24.21,45.64,35.3,63.09,39.88,23.78,6.21,40,.18,44.81-2.11a7.38,7.38,0,0,0,3.18-3.15c104.08-199.38,284.71-252,285.66-252.25h0c41.37-14.3,75.71-31.65,104.1-49.75.93-.58,115.23-50.85,114.67-51.79"/></g></g></svg>